<svg width="400" height="112" viewBox="0 0 794 112" fill="none" xmlns="http://www.w3.org/2000/svg">
<path d="M20.768 81.576C17.7813 81.576 15.2 80.808 13.024 79.272C10.8907 77.6933 9.09867 75.4533 7.648 72.552C6.19733 69.608 4.96 66.088 3.936 61.992C3.38133 59.7307 2.86933 57.192 2.4 54.376C1.97333 51.5173 1.58933 48.5093 1.248 45.352C0.949334 42.1947 0.693333 38.9947 0.48 35.752C0.309333 32.5093 0.181333 29.3307 0.0960002 26.216C0.0533334 23.1013 0.0320001 20.2 0.0320001 17.512C0.0320001 15.6347 0.117333 13.864 0.288 12.2C0.501334 10.4933 0.906667 9 1.504 7.71999C2.10133 6.39733 2.95467 5.37333 4.064 4.64799C5.17333 3.87999 6.624 3.49599 8.416 3.49599C11.2747 3.49599 13.3013 4.28533 14.496 5.864C15.7333 7.44266 16.48 9.72533 16.736 12.712C16.7787 15.7413 16.8427 18.6 16.928 21.288C17.0133 23.9333 17.12 26.472 17.248 28.904C17.376 31.2933 17.504 33.64 17.632 35.944C17.8027 38.2053 17.9947 40.4453 18.208 42.664C18.4213 44.8827 18.656 47.144 18.912 49.448C19.3813 53.7147 20.128 56.9573 21.152 59.176C22.176 61.3947 23.5413 62.504 25.248 62.504C26.9547 62.504 28.32 61.48 29.344 59.432C30.368 57.384 31.3707 54.2053 32.352 49.896C32.864 47.592 33.376 45.1387 33.888 42.536C34.4 39.9333 34.912 37.288 35.424 34.6C35.936 31.8693 36.448 29.224 36.96 26.664C37.472 24.0613 37.9413 21.608 38.368 19.304C39.4773 13.7147 40.992 9.40533 42.912 6.376C44.8747 3.34666 47.712 1.83199 51.424 1.83199C53.6 1.83199 55.4133 2.59999 56.864 4.13599C58.3573 5.67199 59.5947 7.72 60.576 10.28C61.5573 12.84 62.3893 15.6347 63.072 18.664C63.456 20.584 63.84 22.568 64.224 24.616C64.608 26.664 64.992 28.7333 65.376 30.824C65.76 32.9147 66.144 35.0053 66.528 37.096C66.912 39.1867 67.2747 41.2347 67.616 43.24C67.9573 45.2027 68.2773 47.08 68.576 48.872C69.2587 53.0107 69.984 56.1467 70.752 58.28C71.5627 60.4133 72.8427 61.48 74.592 61.48C76.2133 61.48 77.536 60.3493 78.56 58.088C79.6267 55.784 80.544 52.7973 81.312 49.128C81.7813 46.9947 82.208 44.6907 82.592 42.216C83.0187 39.6987 83.3813 37.1173 83.68 34.472C84.0213 31.784 84.32 29.16 84.576 26.6C84.8747 23.9973 85.1307 21.544 85.344 19.24C85.5573 16.8933 85.7493 14.8027 85.92 12.968C86.176 11.304 86.6027 9.87467 87.2 8.68C87.7973 7.44267 88.6933 6.48266 89.888 5.8C91.0827 5.07466 92.6613 4.712 94.624 4.712C96.1173 4.712 97.3547 5.01066 98.336 5.60799C99.36 6.20533 100.171 7.03733 100.768 8.104C101.365 9.128 101.792 10.344 102.048 11.752C102.304 13.1173 102.432 14.632 102.432 16.296C102.432 18.5147 102.325 21.2027 102.112 24.36C101.899 27.4747 101.579 30.824 101.152 34.408C100.768 37.992 100.256 41.5973 99.616 45.224C99.0187 48.808 98.3147 52.2213 97.504 55.464C96.736 58.664 95.8613 61.4587 94.88 63.848C92.7467 69.3093 90.1227 73.4907 87.008 76.392C83.8933 79.2507 80.48 80.68 76.768 80.68C72.6293 80.68 69.344 79.464 66.912 77.032C64.48 74.5573 62.496 70.696 60.96 65.448C60.576 63.784 60.192 62.0773 59.808 60.328C59.424 58.536 59.04 56.7013 58.656 54.824C58.3147 52.9467 57.952 51.0267 57.568 49.064C57.184 47.0587 56.8 45.032 56.416 42.984C56.0747 40.8933 55.7333 38.7813 55.392 36.648C54.752 32.7227 54.0907 29.5867 53.408 27.24C52.7253 24.8507 51.808 23.656 50.656 23.656C49.5467 23.656 48.5867 24.9147 47.776 27.432C47.008 29.9067 46.2613 32.9573 45.536 36.584C44.4693 41.8747 43.4453 47.016 42.464 52.008C41.5253 56.9573 40.3733 61.5653 39.008 65.832C37.5147 69.8 35.8933 72.936 34.144 75.24C32.3947 77.5013 30.4107 79.1227 28.192 80.104C26.016 81.0853 23.5413 81.576 20.768 81.576Z" fill="#FF0000"/>
<path d="M144.848 85.416C137.68 85.416 131.472 84.328 126.224 82.152C120.976 79.976 116.923 76.6267 114.064 72.104C111.205 67.5387 109.776 61.736 109.776 54.696C109.776 48.8507 110.736 43.752 112.656 39.4C114.619 35.0053 117.307 31.336 120.72 28.392C124.133 25.448 128.08 23.2507 132.56 21.8C137.04 20.3067 141.819 19.56 146.896 19.56C150.352 19.56 153.616 19.9227 156.688 20.648C159.803 21.3733 162.555 22.504 164.944 24.04C167.376 25.5333 169.275 27.4533 170.64 29.8C172.005 32.1467 172.688 34.9413 172.688 38.184C172.688 41.64 171.963 44.456 170.512 46.632C169.061 48.7653 167.077 50.4507 164.56 51.688C162.043 52.8827 159.184 53.7787 155.984 54.376C152.827 54.9307 149.52 55.3573 146.064 55.656C144.315 55.9547 142.245 56.2107 139.856 56.424C137.467 56.5947 135.141 56.744 132.88 56.872C130.661 56.9573 128.933 57 127.696 57C126.416 57 125.541 57.1707 125.072 57.512C124.603 57.8533 124.368 58.472 124.368 59.368C124.368 60.4347 124.667 61.6933 125.264 63.144C125.861 64.552 126.715 65.9387 127.824 67.304C129.872 69.8213 132.24 71.5067 134.928 72.36C137.659 73.1707 141.008 73.576 144.976 73.576C148.432 73.576 151.589 73.1707 154.448 72.36C157.307 71.5067 159.867 70.6747 162.128 69.864C164.432 69.0107 166.501 68.584 168.336 68.584C170 68.584 171.301 68.904 172.24 69.544C173.221 70.1413 173.712 71.336 173.712 73.128C173.712 74.7493 172.965 76.3067 171.472 77.8C170.021 79.2933 167.995 80.5947 165.392 81.704C162.789 82.856 159.739 83.752 156.24 84.392C152.741 85.0747 148.944 85.416 144.848 85.416ZM139.792 49.832C143.248 49.832 146.469 49.512 149.456 48.872C152.443 48.1893 154.853 47.0587 156.688 45.48C158.565 43.8587 159.504 41.64 159.504 38.824C159.504 35.496 158.288 33 155.856 31.336C153.424 29.6293 150.011 28.776 145.616 28.776C143.013 28.776 140.475 29.2453 138 30.184C135.525 31.08 133.328 32.3387 131.408 33.96C129.488 35.5813 127.952 37.416 126.8 39.464C125.648 41.512 125.072 43.7093 125.072 46.056C125.072 47.2507 125.541 48.1253 126.48 48.68C127.461 49.192 129.019 49.512 131.152 49.64C133.328 49.768 136.208 49.832 139.792 49.832Z" fill="#2481B5"/>
<path d="M208.888 87.208C205.432 87.208 202.147 86.8667 199.032 86.184C195.96 85.5013 193.229 84.4133 190.84 82.92C188.451 81.4267 186.573 79.4853 185.208 77.096C183.843 74.7067 183.16 71.784 183.16 68.328C183.16 64.4027 184.12 61.1813 186.04 58.664C187.96 56.1467 190.563 54.184 193.848 52.776C197.176 51.3253 200.909 50.3227 205.048 49.768C209.187 49.2133 213.475 48.936 217.912 48.936C219.277 48.936 220.664 48.9787 222.072 49.064C223.48 49.1493 224.803 49.2347 226.04 49.32C227.32 49.4053 228.365 49.448 229.176 49.448C230.285 49.448 231.032 49.2773 231.416 48.936C231.8 48.552 231.992 47.912 231.992 47.016C231.992 45.352 231.779 43.88 231.352 42.6C230.968 41.32 230.392 40.1893 229.624 39.208C228.856 38.2267 227.939 37.3947 226.872 36.712C225.165 35.56 223.096 34.7493 220.664 34.28C218.275 33.768 215.693 33.512 212.92 33.512C209.635 33.512 206.712 33.8533 204.152 34.536C201.635 35.2187 199.395 35.9227 197.432 36.648C195.469 37.3733 193.677 37.736 192.056 37.736C189.837 37.736 188.131 37.3733 186.936 36.648C185.741 35.9227 185.144 34.7493 185.144 33.128C185.144 31.464 185.848 29.928 187.256 28.52C188.664 27.112 190.605 25.8747 193.08 24.808C195.597 23.7413 198.499 22.9093 201.784 22.312C205.112 21.7147 208.653 21.416 212.408 21.416C219.96 21.416 226.275 22.376 231.352 24.296C236.472 26.1733 240.312 29.2453 242.872 33.512C245.432 37.736 246.712 43.432 246.712 50.6C246.712 52.7333 246.605 54.5893 246.392 56.168C246.179 57.7467 245.901 59.1333 245.56 60.328C245.261 61.48 245.005 62.4827 244.792 63.336C244.579 64.1893 244.472 64.9787 244.472 65.704C244.472 66.728 244.792 67.7093 245.432 68.648C246.115 69.544 246.904 70.44 247.8 71.336C248.739 72.232 249.549 73.192 250.232 74.216C250.915 75.1973 251.256 76.3067 251.256 77.544C251.256 79.3787 250.659 80.7013 249.464 81.512C248.269 82.3227 246.947 82.728 245.496 82.728C244.173 82.728 243.064 82.28 242.168 81.384C241.315 80.5307 240.525 79.6773 239.8 78.824C239.117 77.9707 238.264 77.544 237.24 77.544C236.643 77.544 235.981 77.7147 235.256 78.056C234.573 78.3973 233.72 78.9307 232.696 79.656C231.416 80.5947 229.773 81.64 227.768 82.792C225.805 83.9867 223.288 85.0107 220.216 85.864C217.144 86.76 213.368 87.208 208.888 87.208ZM210.616 77.416C213.261 77.416 215.821 77.0107 218.296 76.2C220.771 75.3467 222.989 74.1947 224.952 72.744C226.915 71.2507 228.472 69.5227 229.624 67.56C230.776 65.5547 231.352 63.4 231.352 61.096C231.352 59.6453 230.861 58.6 229.88 57.96C228.941 57.32 227.384 56.9147 225.208 56.744C223.032 56.5733 220.152 56.488 216.568 56.488C213.027 56.488 209.741 56.8507 206.712 57.576C203.683 58.2587 201.251 59.432 199.416 61.096C197.581 62.7173 196.664 64.936 196.664 67.752C196.664 69.928 197.219 71.72 198.328 73.128C199.437 74.536 201.037 75.6027 203.128 76.328C205.219 77.0533 207.715 77.416 210.616 77.416Z" fill="#00CD90"/>
<path d="M295.936 82.344C293.632 82.344 291.307 82.0027 288.96 81.32C286.656 80.6373 284.672 79.3573 283.008 77.48C281.387 75.56 280.427 72.8507 280.128 69.352C280 68.1147 279.872 66.7067 279.744 65.128C279.616 63.5493 279.488 61.864 279.36 60.072C279.275 58.2373 279.189 56.36 279.104 54.44C279.061 52.4773 278.997 50.4933 278.912 48.488C278.869 46.44 278.848 44.4133 278.848 42.408C278.805 40.488 278.443 39.2293 277.76 38.632C277.12 38.0347 276.117 37.672 274.752 37.544C273.941 37.4587 272.896 37.3947 271.616 37.352C270.379 37.3093 269.099 37.2453 267.776 37.16C266.453 37.0747 265.28 36.9893 264.256 36.904C262.592 36.7333 261.333 36.2 260.48 35.304C259.627 34.3653 259.2 33.0427 259.2 31.336C259.2 30.184 259.435 29.3093 259.904 28.712C260.416 28.072 261.12 27.5813 262.016 27.24C262.955 26.8987 264 26.664 265.152 26.536C267.413 26.3227 269.269 26.1307 270.72 25.96C272.213 25.7893 273.6 25.64 274.88 25.512C276.245 25.3413 277.205 24.9787 277.76 24.424C278.357 23.8693 278.741 22.8453 278.912 21.352C278.997 20.456 279.061 19.4107 279.104 18.216C279.189 17.0213 279.275 15.848 279.36 14.696C279.488 13.5013 279.616 12.4773 279.744 11.624C280.213 9.53333 280.875 7.99733 281.728 7.016C282.581 6.03467 283.947 5.544 285.824 5.544C287.36 5.544 288.555 5.8 289.408 6.312C290.304 6.78133 290.965 7.528 291.392 8.55199C291.819 9.576 292.16 10.8987 292.416 12.52C292.501 13.8427 292.565 15.016 292.608 16.04C292.693 17.064 292.757 18.0027 292.8 18.856C292.843 19.6667 292.885 20.4133 292.928 21.096C293.013 21.7787 293.099 22.4613 293.184 23.144C293.312 24.3813 293.717 25.2773 294.4 25.832C295.083 26.344 296.085 26.664 297.408 26.792C298.56 26.92 299.819 27.0693 301.184 27.24C302.592 27.368 303.936 27.496 305.216 27.624C306.539 27.7093 307.627 27.8373 308.48 28.008C310.229 28.2213 311.723 28.6907 312.96 29.416C314.197 30.1413 314.816 31.336 314.816 33C314.816 34.536 314.325 35.752 313.344 36.648C312.363 37.5013 311.019 37.992 309.312 38.12C306.709 38.1627 304.299 38.184 302.08 38.184C299.861 38.1413 298.133 38.1413 296.896 38.184C295.915 38.2693 295.147 38.568 294.592 39.08C294.08 39.5493 293.781 40.7867 293.696 42.792C293.696 44.4133 293.696 46.0773 293.696 47.784C293.739 49.4907 293.781 51.1973 293.824 52.904C293.867 54.6107 293.931 56.296 294.016 57.96C294.101 59.5813 294.208 61.1173 294.336 62.568C294.464 64.0187 294.613 65.3413 294.784 66.536C295.125 69.0533 295.744 70.7387 296.64 71.592C297.579 72.4453 298.816 72.872 300.352 72.872C302.187 72.872 303.616 72.5093 304.64 71.784C305.707 71.016 306.603 70.248 307.328 69.48C308.096 68.712 308.949 68.328 309.888 68.328C310.955 68.328 311.723 68.6267 312.192 69.224C312.704 69.7787 312.96 70.6107 312.96 71.72C312.96 73.128 312.448 74.472 311.424 75.752C310.443 76.9893 309.12 78.12 307.456 79.144C305.835 80.1253 304.021 80.8933 302.016 81.448C300.011 82.0453 297.984 82.344 295.936 82.344Z" fill="#FF00F5"/>
<path d="M330.624 84.2C329.003 84.2 327.744 83.7307 326.848 82.792C325.952 81.896 325.269 80.4667 324.8 78.504C324.587 77.5227 324.395 76.0933 324.224 74.216C324.096 72.3387 323.968 70.0987 323.84 67.496C323.712 64.8933 323.605 62.0133 323.52 58.856C323.477 55.656 323.456 52.2213 323.456 48.552C323.456 45.7787 323.52 42.92 323.648 39.976C323.819 37.032 324.053 34.1307 324.352 31.272C324.693 28.3707 325.099 25.5547 325.568 22.824C326.037 20.0507 326.571 17.4693 327.168 15.08C327.808 12.648 328.512 10.4507 329.28 8.488C330.389 5.97066 331.712 4.072 333.248 2.792C334.784 1.512 336.491 0.871994 338.368 0.871994C340.416 0.871994 342.016 1.61866 343.168 3.112C344.32 4.56266 344.896 6.73866 344.896 9.64C344.896 11.176 344.832 12.8827 344.704 14.76C344.576 16.6373 344.405 18.536 344.192 20.456C343.979 22.376 343.765 24.232 343.552 26.024C343.381 27.816 343.211 29.416 343.04 30.824C342.912 32.232 342.848 33.3413 342.848 34.152C342.848 35.432 343.104 36.072 343.616 36.072C344.085 36.072 344.789 35.56 345.728 34.536C346.709 33.4693 348.075 32.2747 349.824 30.952C351.616 29.5867 353.941 28.392 356.8 27.368C359.659 26.3013 363.2 25.768 367.424 25.768C372.117 25.768 376 26.6427 379.072 28.392C382.187 30.0987 384.64 32.4027 386.432 35.304C388.224 38.1627 389.504 41.3413 390.272 44.84C391.04 48.3387 391.424 51.8373 391.424 55.336C391.424 57.0853 391.296 59.0267 391.04 61.16C390.827 63.2933 390.528 65.448 390.144 67.624C389.76 69.7573 389.312 71.7627 388.8 73.64C388.331 75.5173 387.797 77.0747 387.2 78.312C386.432 79.8053 385.387 80.9147 384.064 81.64C382.784 82.408 381.205 82.792 379.328 82.792C377.792 82.792 376.619 82.4507 375.808 81.768C374.997 81.0853 374.4 80.1893 374.016 79.08C373.845 78.184 373.803 76.9467 373.888 75.368C374.016 73.7467 374.165 71.9333 374.336 69.928C374.549 67.88 374.72 65.768 374.848 63.592C374.976 61.3733 374.997 59.24 374.912 57.192C374.869 54.9733 374.613 52.776 374.144 50.6C373.717 48.3813 373.013 46.3547 372.032 44.52C371.093 42.6427 369.749 41.1493 368 40.04C366.293 38.9307 364.117 38.376 361.472 38.376C358.187 38.376 355.285 38.952 352.768 40.104C350.293 41.2133 348.203 42.6427 346.496 44.392C344.832 46.1413 343.531 47.9547 342.592 49.832C341.696 51.7093 341.163 53.3733 340.992 54.824C340.779 57.64 340.565 60.2213 340.352 62.568C340.139 64.872 339.904 66.984 339.648 68.904C339.435 70.824 339.179 72.552 338.88 74.088C338.581 75.624 338.261 77.032 337.92 78.312C337.237 80.2747 336.277 81.7467 335.04 82.728C333.845 83.7093 332.373 84.2 330.624 84.2Z" fill="#8500D7"/>
<path d="M436.848 85.416C429.68 85.416 423.472 84.328 418.224 82.152C412.976 79.976 408.923 76.6267 406.064 72.104C403.205 67.5387 401.776 61.736 401.776 54.696C401.776 48.8507 402.736 43.752 404.656 39.4C406.619 35.0053 409.307 31.336 412.72 28.392C416.133 25.448 420.08 23.2507 424.56 21.8C429.04 20.3067 433.819 19.56 438.896 19.56C442.352 19.56 445.616 19.9227 448.688 20.648C451.803 21.3733 454.555 22.504 456.944 24.04C459.376 25.5333 461.275 27.4533 462.64 29.8C464.005 32.1467 464.688 34.9413 464.688 38.184C464.688 41.64 463.963 44.456 462.512 46.632C461.061 48.7653 459.077 50.4507 456.56 51.688C454.043 52.8827 451.184 53.7787 447.984 54.376C444.827 54.9307 441.52 55.3573 438.064 55.656C436.315 55.9547 434.245 56.2107 431.856 56.424C429.467 56.5947 427.141 56.744 424.88 56.872C422.661 56.9573 420.933 57 419.696 57C418.416 57 417.541 57.1707 417.072 57.512C416.603 57.8533 416.368 58.472 416.368 59.368C416.368 60.4347 416.667 61.6933 417.264 63.144C417.861 64.552 418.715 65.9387 419.824 67.304C421.872 69.8213 424.24 71.5067 426.928 72.36C429.659 73.1707 433.008 73.576 436.976 73.576C440.432 73.576 443.589 73.1707 446.448 72.36C449.307 71.5067 451.867 70.6747 454.128 69.864C456.432 69.0107 458.501 68.584 460.336 68.584C462 68.584 463.301 68.904 464.24 69.544C465.221 70.1413 465.712 71.336 465.712 73.128C465.712 74.7493 464.965 76.3067 463.472 77.8C462.021 79.2933 459.995 80.5947 457.392 81.704C454.789 82.856 451.739 83.752 448.24 84.392C444.741 85.0747 440.944 85.416 436.848 85.416ZM431.792 49.832C435.248 49.832 438.469 49.512 441.456 48.872C444.443 48.1893 446.853 47.0587 448.688 45.48C450.565 43.8587 451.504 41.64 451.504 38.824C451.504 35.496 450.288 33 447.856 31.336C445.424 29.6293 442.011 28.776 437.616 28.776C435.013 28.776 432.475 29.2453 430 30.184C427.525 31.08 425.328 32.3387 423.408 33.96C421.488 35.5813 419.952 37.416 418.8 39.464C417.648 41.512 417.072 43.7093 417.072 46.056C417.072 47.2507 417.541 48.1253 418.48 48.68C419.461 49.192 421.019 49.512 423.152 49.64C425.328 49.768 428.208 49.832 431.792 49.832Z" fill="#75AC00"/>
<path d="M488.728 82.664C487.491 82.664 486.381 82.408 485.4 81.896C484.419 81.4267 483.523 80.7653 482.712 79.912C481.944 79.0587 481.24 78.056 480.6 76.904C479.832 75.2827 479.128 73.4053 478.488 71.272C477.848 69.1387 477.293 66.92 476.824 64.616C476.397 62.2693 476.077 59.944 475.864 57.64C475.651 55.336 475.544 53.2027 475.544 51.24C475.544 44.2853 476.845 38.3973 479.448 33.576C482.051 28.7547 485.805 25.0853 490.712 22.568C495.619 20.0507 501.507 18.792 508.376 18.792C511.277 18.792 514.051 19.0053 516.696 19.432C519.384 19.8587 521.773 20.4987 523.864 21.352C525.955 22.1627 527.597 23.1867 528.792 24.424C530.029 25.6187 530.648 27.0053 530.648 28.584C530.648 29.864 530.371 30.9093 529.816 31.72C529.261 32.488 528.536 33.0427 527.64 33.384C526.787 33.7253 525.891 33.896 524.952 33.896C522.989 33.896 520.835 33.576 518.488 32.936C516.184 32.2533 513.176 31.912 509.464 31.912C503.875 31.912 499.672 33.64 496.856 37.096C494.083 40.552 492.696 45.2453 492.696 51.176C492.696 53.3093 492.803 55.3787 493.016 57.384C493.229 59.3467 493.485 61.2453 493.784 63.08C494.083 64.872 494.381 66.536 494.68 68.072C494.979 69.608 495.213 70.9733 495.384 72.168C495.597 73.3627 495.704 74.344 495.704 75.112C495.704 77.7573 495.107 79.6773 493.912 80.872C492.76 82.0667 491.032 82.664 488.728 82.664Z" fill="#0029FF"/>
<path d="M630.856 88.56C629.107 88.56 627.592 88.112 626.312 87.216C625.075 86.3627 623.965 85.0613 622.984 83.312C622.6 82.16 622.173 80.816 621.704 79.28C621.235 77.7013 620.765 76.1013 620.296 74.48C619.869 72.8587 619.421 71.3227 618.952 69.872C618.483 68.3787 618.013 67.1413 617.544 66.16C616.947 64.7947 616.2 63.792 615.304 63.152C614.451 62.512 613.171 62.064 611.464 61.808C610.611 61.7227 609.309 61.616 607.56 61.488C605.853 61.3173 603.976 61.1893 601.928 61.104C599.88 60.976 597.96 60.912 596.168 60.912C593.437 60.912 590.664 60.976 587.848 61.104C585.032 61.232 582.6 61.4027 580.552 61.616C578.803 61.7867 577.48 62.1493 576.584 62.704C575.731 63.216 575.027 64.1333 574.472 65.456C573.917 66.6933 573.341 68.1867 572.744 69.936C572.147 71.6853 571.549 73.52 570.952 75.44C570.355 77.36 569.757 79.2373 569.16 81.072C568.264 83.12 567.176 84.6773 565.896 85.744C564.659 86.768 562.931 87.28 560.712 87.28C559.005 87.28 557.576 87.0027 556.424 86.448C555.272 85.8933 554.419 84.976 553.864 83.696C553.309 82.416 553.032 80.7307 553.032 78.64C553.032 76.6773 553.309 74.3307 553.864 71.6C554.419 68.8267 555.165 65.84 556.104 62.64C557.085 59.44 558.152 56.1973 559.304 52.912C560.499 49.6267 561.693 46.4693 562.888 43.44C564.125 40.368 565.299 37.616 566.408 35.184C567.517 32.7093 568.477 30.7467 569.288 29.296C570.739 26.608 572.381 24.0267 574.216 21.552C576.093 19.0773 578.163 16.88 580.424 14.96C582.728 12.9973 585.245 11.4613 587.976 10.352C590.707 9.19999 593.715 8.62399 597 8.62399C602.291 8.62399 607.048 10.224 611.272 13.424C615.539 16.624 619.315 20.8693 622.6 26.16C623.837 27.952 625.075 30.2773 626.312 33.136C627.592 35.952 628.851 39.088 630.088 42.544C631.325 45.9573 632.477 49.4987 633.544 53.168C634.611 56.8373 635.549 60.4427 636.36 63.984C637.213 67.5253 637.853 70.7893 638.28 73.776C638.749 76.7627 638.984 79.28 638.984 81.328C638.984 83.9733 638.259 85.8293 636.808 86.896C635.357 88.0053 633.373 88.56 630.856 88.56ZM612.296 50.736C613.235 50.5653 613.853 50.2027 614.152 49.648C614.451 49.0933 614.6 48.2187 614.6 47.024C614.6 45.7013 614.365 44.08 613.896 42.16C613.469 40.1973 612.872 38.1493 612.104 36.016C611.336 33.84 610.44 31.8133 609.416 29.936C607.965 27.1627 606.259 24.8587 604.296 23.024C602.333 21.1467 600.221 20.208 597.96 20.208C595.485 20.208 593.117 21.1893 590.856 23.152C588.637 25.072 586.675 27.5253 584.968 30.512C584.243 31.7067 583.496 33.072 582.728 34.608C581.96 36.144 581.256 37.7227 580.616 39.344C579.976 40.9653 579.443 42.5013 579.016 43.952C578.632 45.36 578.44 46.5547 578.44 47.536C578.44 48.816 578.952 49.712 579.976 50.224C581 50.6933 582.643 50.928 584.904 50.928C589.683 50.928 593.821 50.928 597.32 50.928C600.819 50.928 603.784 50.928 606.216 50.928C608.691 50.928 610.717 50.864 612.296 50.736Z" fill="black"/>
<path d="M733.776 111.016C732.581 111.016 731.515 110.717 730.576 110.12C729.68 109.523 728.891 108.541 728.208 107.176C727.525 105.853 726.949 104.083 726.48 101.864C726.181 100.029 725.904 98.0453 725.648 95.912C725.392 93.8213 725.157 91.6667 724.944 89.448C724.773 87.272 724.624 85.032 724.496 82.728C724.368 80.4667 724.261 78.248 724.176 76.072C724.133 73.896 724.112 71.784 724.112 69.736C724.112 60.8613 725.371 53.0107 727.888 46.184C730.448 39.3147 734.416 33.9387 739.792 30.056C745.168 26.1307 752.123 24.168 760.656 24.168C766.075 24.168 770.832 24.936 774.928 26.472C779.067 27.9653 782.523 30.0987 785.296 32.872C788.069 35.6027 790.139 38.8667 791.504 42.664C792.912 46.4187 793.616 50.5787 793.616 55.144C793.616 59.752 792.955 63.8907 791.632 67.56C790.352 71.1867 788.304 74.28 785.488 76.84C782.672 79.4 779.024 81.3413 774.544 82.664C770.064 83.9867 764.603 84.648 758.16 84.648C755.173 84.648 752.699 84.4133 750.736 83.944C748.773 83.5173 747.216 83.0693 746.064 82.6C744.912 82.1733 744.059 81.96 743.504 81.96C742.693 81.96 742.075 82.216 741.648 82.728C741.264 83.24 741.008 84.3493 740.88 86.056C740.752 86.9093 740.667 88.1467 740.624 89.768C740.581 91.432 740.517 93.2027 740.432 95.08C740.389 97 740.347 98.7707 740.304 100.392C740.304 102.013 740.283 103.251 740.24 104.104C740.069 106.707 739.429 108.499 738.32 109.48C737.253 110.504 735.739 111.016 733.776 111.016ZM755.856 73.128C761.872 73.128 766.629 72.36 770.128 70.824C773.627 69.288 776.123 67.0693 777.616 64.168C779.152 61.224 779.92 57.7253 779.92 53.672C779.92 50.5147 779.387 47.5493 778.32 44.776C777.253 41.96 775.355 39.6773 772.624 37.928C769.893 36.1787 766.053 35.304 761.104 35.304C757.605 35.304 754.597 35.9013 752.08 37.096C749.563 38.248 747.515 39.912 745.936 42.088C744.4 44.264 743.269 46.824 742.544 49.768C741.819 52.712 741.456 55.9973 741.456 59.624C741.456 63.2507 741.883 66.0453 742.736 68.008C743.589 69.928 745.061 71.272 747.152 72.04C749.285 72.7653 752.187 73.128 755.856 73.128Z" fill="black"/>
<path d="M656.776 111.016C655.581 111.016 654.515 110.717 653.576 110.12C652.68 109.523 651.891 108.541 651.208 107.176C650.525 105.853 649.949 104.083 649.48 101.864C649.181 100.029 648.904 98.0453 648.648 95.912C648.392 93.8213 648.157 91.6667 647.944 89.448C647.773 87.272 647.624 85.032 647.496 82.728C647.368 80.4667 647.261 78.248 647.176 76.072C647.133 73.896 647.112 71.784 647.112 69.736C647.112 60.8613 648.371 53.0107 650.888 46.184C653.448 39.3147 657.416 33.9387 662.792 30.056C668.168 26.1307 675.123 24.168 683.656 24.168C689.075 24.168 693.832 24.936 697.928 26.472C702.067 27.9653 705.523 30.0987 708.296 32.872C711.069 35.6027 713.139 38.8667 714.504 42.664C715.912 46.4187 716.616 50.5787 716.616 55.144C716.616 59.752 715.955 63.8907 714.632 67.56C713.352 71.1867 711.304 74.28 708.488 76.84C705.672 79.4 702.024 81.3413 697.544 82.664C693.064 83.9867 687.603 84.648 681.16 84.648C678.173 84.648 675.699 84.4133 673.736 83.944C671.773 83.5173 670.216 83.0693 669.064 82.6C667.912 82.1733 667.059 81.96 666.504 81.96C665.693 81.96 665.075 82.216 664.648 82.728C664.264 83.24 664.008 84.3493 663.88 86.056C663.752 86.9093 663.667 88.1467 663.624 89.768C663.581 91.432 663.517 93.2027 663.432 95.08C663.389 97 663.347 98.7707 663.304 100.392C663.304 102.013 663.283 103.251 663.24 104.104C663.069 106.707 662.429 108.499 661.32 109.48C660.253 110.504 658.739 111.016 656.776 111.016ZM678.856 73.128C684.872 73.128 689.629 72.36 693.128 70.824C696.627 69.288 699.123 67.0693 700.616 64.168C702.152 61.224 702.92 57.7253 702.92 53.672C702.92 50.5147 702.387 47.5493 701.32 44.776C700.253 41.96 698.355 39.6773 695.624 37.928C692.893 36.1787 689.053 35.304 684.104 35.304C680.605 35.304 677.597 35.9013 675.08 37.096C672.563 38.248 670.515 39.912 668.936 42.088C667.4 44.264 666.269 46.824 665.544 49.768C664.819 52.712 664.456 55.9973 664.456 59.624C664.456 63.2507 664.883 66.0453 665.736 68.008C666.589 69.928 668.061 71.272 670.152 72.04C672.285 72.7653 675.187 73.128 678.856 73.128Z" fill="black"/>
</svg>
